<svg id="Layer_3" enable-background="new 0 0 64 64" height="512" viewBox="0 0 64 64" width="512" xmlns="http://www.w3.org/2000/svg"><g><path d="m2 2h60v60h-60z" fill="#59ac98"/><path d="m43 12h5c2.209 0 4 1.791 4 4v32c0 2.209-1.791 4-4 4h-5c-1.105 0-2 .895-2 2 0 1.105-.895 2-2 2h-14c-1.105 0-2-.895-2-2 0-1.105-.895-2-2-2h-5c-2.209 0-4-1.791-4-4v-32c0-2.209 1.791-4 4-4h5c1.105 0 2-.895 2-2 0-1.105.895-2 2-2h14c1.105 0 2 .895 2 2 0 1.105.895 2 2 2z" fill="#cbc3b6"/><g fill="#e7e4dd"><path d="m12 49h-1c-1.105 0-2-.895-2-2v-2h-1c-1.105 0-2-.895-2-2v-5c0-1.105.895-2 2-2 .552 0 1-.448 1-1v-6c0-.552-.448-1-1-1-1.105 0-2-.895-2-2v-5c0-1.105.895-2 2-2h1v-2c0-1.105.895-2 2-2h1"/><path d="m52 49h1c1.105 0 2-.895 2-2v-2h1c1.105 0 2-.895 2-2v-5c0-1.105-.895-2-2-2-.552 0-1-.448-1-1v-6c0-.552.448-1 1-1 1.105 0 2-.895 2-2v-5c0-1.105-.895-2-2-2h-1v-2c0-1.105-.895-2-2-2h-1"/><path d="m6 6h4v4h-4z"/><path d="m54 6h4v4h-4z"/></g><path d="m54 54h4v4h-4z" fill="#cbc3b6"/><path d="m6 54h4v4h-4z" fill="#cbc3b6"/><g><path d="m4.999 12h1.999v2h-1.999z" fill="#cbc3b6"/></g><g><path d="m4.999 15h1.999v2h-1.999z" fill="#f2c351"/></g><g><path d="m4 29h1.999v2h-1.999z" fill="#e7e4dd"/></g><g><path d="m4 33h1.999v2h-1.999z" fill="#f2c351"/></g><g><path d="m5 50h1.999v2h-1.999z" fill="#e7e4dd"/></g><g><path d="m5 47h1.999v2h-1.999z" fill="#f2c351"/></g><g><path d="m56.999 12h1.999v2h-1.999z" fill="#f2c351"/></g><g><path d="m56.999 15h1.999v2h-1.999z" fill="#f2c351"/></g><g><path d="m57.999 29h1.999v2h-1.999z" fill="#e7e4dd"/></g><g><path d="m58 33h2v2h-2z" fill="#f2c351"/></g><g><path d="m56.999 50h1.999v2h-1.999z" fill="#f2c351"/></g><g><path d="m56.999 47h1.999v2h-1.999z" fill="#f2c351"/></g><path d="m12 2 2 3h36l2-3" fill="#f7d881"/><g><path d="m48.999 55h1.999v2h-1.999z" fill="#f2c351"/></g><g><path d="m48.999 58h1.999v2h-1.999z" fill="#f2c351"/></g><g><path d="m46 56h1.999v2h-1.999z" fill="#f2c351"/></g><g><path d="m43 55h1.999v2h-1.999z" fill="#f2c351"/></g><g><path d="m43 58h1.999v2h-1.999z" fill="#f2c351"/></g><g><path d="m19 55h1.999v2h-1.999z" fill="#f2c351"/></g><g><path d="m19 58h1.999v2h-1.999z" fill="#e7e4dd"/></g><g><path d="m16 56h1.999v2h-1.999z" fill="#e7e4dd"/></g><g><path d="m13 55h1.999v2h-1.999z" fill="#f2c351"/></g><g><path d="m13 58h1.999v2h-1.999z" fill="#f2c351"/></g><g><path d="m29.999 37.999h-2v-10.999c0-.553.447-1 1-1h3.001c2.204 0 3.998 1.794 3.998 4s-1.794 4-3.998 4h-2.001zm0-5.999h2.001c1.102 0 1.998-.897 1.998-2 0-1.104-.896-2-1.998-2h-2.001z" fill="#e7e4dd"/></g><g><path d="m42 37.999c-2.758 0-5.001-2.243-5.001-4.999v-7h2v7c0 1.654 1.346 2.999 3 2.999 1.653 0 2.999-1.345 2.999-2.999v-7h2v7c0 2.756-2.242 4.999-4.998 4.999z" fill="#e7e4dd"/></g><g><path d="m16.999 40h29.999v2h-29.999z" fill="#e7e4dd"/></g><g><path d="m16.999 22h29.999v2h-29.999z" fill="#e7e4dd"/></g><g><path d="m31.999 43h14.999v2h-14.999z" fill="#e7e4dd"/></g><g><path d="m23 38h-2.001c-2.206 0-4-1.794-4-4v-4c0-2.206 1.794-4 4.001-4h2c2.204 0 3.998 1.794 3.998 3.999h-2c0-1.102-.896-1.999-1.998-1.999h-2c-1.104 0-2.001.897-2.001 2v4c0 1.103.896 2 2 2h2.001c1.102 0 1.998-.897 1.998-2h2c0 2.206-1.794 4-3.998 4z" fill="#e7e4dd"/></g><g><path d="m62 .999h-60.001c-.552 0-1 .448-1 1v60c0 .552.448 1 1 1h60.001c.552 0 1-.448 1-1v-60c0-.552-.448-1-1-1zm-11.869 2-.667 1h-34.929l-.667-1zm10.869 58.001h-58.001v-58h8.465l1.703 2.555c.186.277.498.444.833.444h35.999c.335 0 .647-.167.833-.445l1.703-2.555h8.465z"/><path d="m55.998 35v-6c1.654 0 3-1.346 3-3v-5c0-1.654-1.346-3-3-3v-1c0-1.654-1.346-3-2.999-3h-.424c-.773-1.763-2.53-3-4.575-3h-5.002c-.551 0-1-.449-1-1 .001-.801-.311-1.555-.877-2.122-.567-.566-1.32-.878-2.121-.878h-14.001c-1.654 0-3 1.346-3 3.001 0 .267-.104.518-.293.707s-.439.292-.706.292h-5.001c-2.046 0-3.803 1.237-4.576 3h-.425c-1.653 0-2.999 1.346-2.999 3v1c-1.654 0-3 1.346-3 3v5c0 1.654 1.346 3 3.001 3l-.001 6c-1.654 0-3 1.346-3 3v5c0 1.654 1.346 3 3 3v1c0 1.654 1.346 3 2.999 3h.425c.774 1.762 2.531 2.999 4.577 2.999h5c.267 0 .518.104.706.293s.293.44.293.708c0 1.654 1.346 3 3 3h14.001c1.653 0 2.998-1.346 2.998-3 .001-.552.449-1.001 1-1.001h5c2.045 0 3.802-1.237 4.576-2.999h.425c1.653 0 2.999-1.346 2.999-3v-1c1.655 0 3.002-1.346 3.002-3l-.002-5c0-1.654-1.346-3-3-3zm-45 13c-.551 0-1-.449-1-1l.002-2c0-.266-.105-.52-.293-.708-.187-.187-.442-.292-.707-.292h-1.001c-.552 0-1-.449-1-1v-5c0-.552.448-1 1.001-1 1.103 0 2-.897 2-2v-6c0-1.103-.898-2-2.001-2-.552 0-1-.449-1-1v-5c0-.552.448-1 1-1h1.001c.265 0 .52-.105.707-.293.188-.188.293-.443.293-.708l-.002-1.999c0-.552.449-1 1-1h.001l-.001 32c.001-.001.001 0 .001 0zm40-.001c0 1.654-1.346 3-3 3h-5c-1.652 0-2.998 1.346-3 3.001 0 .551-.447 1-.998 1h-14.001c-.552 0-1-.449-1-1 0-.801-.312-1.555-.878-2.122-.566-.566-1.32-.879-2.121-.879h-5c-1.655 0-3.001-1.346-3.001-3v-31.999c0-1.654 1.346-3 3-3h5.001c.801 0 1.555-.312 2.121-.879s.878-1.321.878-2.121c0-.552.448-1 .999-1h14.002c.267 0 .518.104.706.292.189.188.293.439.292.708 0 1.654 1.347 3 3 3h5.002c1.653 0 2.998 1.346 2.998 3zm5-3.999h-.999c-.553 0-1 .447-1 1v2c0 .551-.449 1-1 1h-.001v-.001-31.999h.001c.551 0 1 .448 1 1v2c0 .552.447 1 1 1h.999c.552 0 1 .448 1 1v5c0 .551-.448 1-1 1-1.103 0-1.999.897-1.999 2v6c0 1.103.896 2 1.999 2 .552 0 1 .448 1 1l.002 5c0 .551-.449 1-1.002 1z"/><path d="m6 10.999h3.999c.553 0 1-.447 1-1v-3.999c0-.553-.447-1-1-1h-3.999c-.553 0-1 .447-1 1v4c0 .552.447.999 1 .999zm1-3.999h1.999v2h-1.999z"/><path d="m54 10.999h3.999c.553 0 1-.447 1-1v-3.999c0-.553-.447-1-1-1h-3.999c-.553 0-1 .447-1 1v4c0 .552.447.999 1 .999zm1-3.999h1.999v2h-1.999z"/><path d="m57.999 53h-3.999c-.553 0-1 .447-1 1v4c0 .553.447 1 1 1h3.999c.553 0 1-.447 1-1v-4c0-.553-.447-1-1-1zm-1 4h-1.999v-2h1.999z"/><path d="m9.999 53h-3.999c-.553 0-1 .447-1 1v4c0 .553.447 1 1 1h3.999c.553 0 1-.447 1-1v-4c0-.553-.447-1-1-1zm-1 4h-1.999v-2h1.999z"/><path d="m5 12h1.999v2h-1.999z"/><path d="m5 15h1.999v2h-1.999z"/><path d="m4 29h1.999v2h-1.999z"/><path d="m4 33h1.999v2h-1.999z"/><path d="m5 50h1.999v2h-1.999z"/><path d="m5 47h1.999v2h-1.999z"/><path d="m56.999 12h1.999v2h-1.999z"/><path d="m56.999 15h1.999v2h-1.999z"/><path d="m57.999 29h1.999v2h-1.999z"/><path d="m58 33h2v2h-2z"/><path d="m57 50h2v2h-2z"/><path d="m56.999 47h1.999v2h-1.999z"/><path d="m49 55h1.999v2h-1.999z"/><path d="m49 58h1.999v2h-1.999z"/><path d="m46 56h1.999v2h-1.999z"/><path d="m43 55h1.999v2h-1.999z"/><path d="m43 58h1.999v2h-1.999z"/><path d="m19 55h1.999v2h-1.999z"/><path d="m19 58h1.999v2h-1.999z"/><path d="m16 56h1.999v2h-1.999z"/><path d="m13 55h1.999v2h-1.999z"/><path d="m13 58h1.999v2h-1.999z"/><path d="m20.998 38h2.001c2.205 0 3.999-1.794 4-3.999l-2-.001c0 1.104-.897 2-2 2h-2.001c-1.102 0-1.998-.897-1.998-2v-4c0-1.103.896-2 1.998-2h2.001c1.103 0 2 .897 2 2l2-.002c-.001-2.205-1.795-3.999-4-3.999h-2.001c-2.204.001-3.998 1.795-3.998 4v4c0 2.207 1.794 4.001 3.998 4.001z"/><path d="m32 34c2.205 0 3.999-1.794 3.999-4s-1.794-4-3.999-4h-3c-.553 0-1 .447-1 1v11h2v-4zm-2-6h2c1.103 0 1.999.897 1.999 2s-.896 2-1.999 2h-2z"/><path d="m44.999 33c0 1.654-1.346 3-3.001 3-1.653 0-2.998-1.346-2.998-3v-7h-2v7c0 2.757 2.242 5 5 5 2.757 0 4.999-2.243 4.999-5v-7h-2z"/><path d="m17 40h29.999v2h-29.999z"/><path d="m17 22h29.999v2h-29.999z"/><path d="m32 43h14.999v2h-14.999z"/></g></g></svg>