<svg height="512pt" viewBox="0 -53 512 512" width="512pt" xmlns="http://www.w3.org/2000/svg"><path d="m256 300.328125h-41.578125l8.953125 18.265625c8.09375 16.507812 12.738281 40.445312 12.738281 65.621094h39.773438c0-25.175782 4.644531-49.113282 12.738281-65.621094l8.953125-18.265625zm0 0" fill="#8d9ca8"/><path d="m297.585938 300.324219-8.960938 18.277343c-4.046875 8.253907-7.230469 18.355469-9.402344 29.554688-2.171875 11.195312-3.335937 23.476562-3.335937 36.054688h-16.992188c0-12.578126 1.164063-24.859376 3.335938-36.054688 2.171875-11.199219 5.355469-21.300781 9.402343-29.554688l8.960938-18.277343zm0 0" fill="#7a8c98"/><path d="m368.9375 406.214844h-225.875c-2.84375 0-5.152344-2.304688-5.152344-5.148438v-23.6875c0-2.84375 2.308594-5.148437 5.152344-5.148437h225.875c2.84375 0 5.152344 2.304687 5.152344 5.148437v23.6875c0 2.84375-2.308594 5.148438-5.152344 5.148438zm0 0" fill="#d9e7ec"/><path d="m374.089844 377.375v23.6875c0 2.84375-2.308594 5.148438-5.152344 5.148438h-21.625c2.84375 0 5.148438-2.308594 5.148438-5.148438v-23.6875c0-2.839844-2.304688-5.148438-5.148438-5.148438h21.625c2.84375 0 5.152344 2.308594 5.152344 5.148438zm0 0" fill="#c5d3dd"/><path d="m.00390625 6.183594c0-3.792969 3.38281275-6.691406 7.12890575-6.105469 30.097657 4.710937 149.773438 22.410156 248.867188 22.410156s218.769531-17.699219 248.867188-22.410156c3.746093-.585937 7.128906 2.3125 7.128906 6.105469v294.144531c-.011719-.003906-141.695313-23.550781-255.996094-23.550781s-255.984375 23.546875-255.99609375 23.550781zm0 0" fill="#9ae7fd"/><path d="m512 6.183594v294.140625c-.011719 0-11.378906-1.894531-30.285156-4.601563v-289.539062c0-.917969-.199219-1.785156-.558594-2.566406 10.289062-1.472657 18.394531-2.707032 23.707031-3.5429692 3.75-.5859378 7.136719 2.3203122 7.136719 6.1093752zm0 0" fill="#64dcfc"/><path d="m512 300.324219v30.539062c0 3.792969-3.378906 6.691407-7.128906 6.105469-30.09375-4.710938-149.773438-22.414062-248.871094-22.414062s-218.777344 17.703124-248.871094 22.414062c-3.75.585938-7.128906-2.3125-7.128906-6.105469v-30.539062c.0195312 0 141.703125-23.542969 256-23.542969s255.980469 23.542969 256 23.542969zm0 0" fill="#d9e7ec"/><path d="m512 300.324219v30.535156c0 3.800781-3.378906 6.695313-7.125 6.109375-5.378906-.847656-13.605469-2.101562-24.066406-3.597656.574218-1.152344.90625-2.511719.90625-3.972656v-33.675782c18.90625 2.71875 30.273437 4.601563 30.285156 4.601563zm0 0" fill="#c5d3dd"/><path d="m512 6.1875v74.449219l-109.582031-67.164063c47.84375-5.113281 86.980469-10.96875 102.453125-13.3906248 3.746094-.5859372 7.128906 2.3124998 7.128906 6.1054688zm0 0" fill="#0396fd"/><path d="m512 6.183594v74.453125l-30.285156-18.566407v-55.886718c0-.917969-.199219-1.773438-.558594-2.554688.640625-.09375 1.277344-.1875 1.90625-.277344 2.101562-.3125 20.914062-3.132812 20.914062-3.132812.308594-.039062.609376-.09375.894532-.1328125.609375-.09375 1.195312-.1015625 1.773437-.0195313.289063.03125.578125.0898438.855469.1718748 2.5625.722657 4.5 3.082031 4.5 5.945313zm0 0" fill="#0077f0"/><g fill="#0396fd"><path d="m65.742188 87.371094c-1.53125 0-3.078126-.457032-4.429688-1.402344-3.492188-2.449219-4.335938-7.265625-1.886719-10.757812l8.089844-11.535157c2.449219-3.496093 7.261719-4.339843 10.757813-1.890625 3.492187 2.449219 4.335937 7.265625 1.886718 10.757813l-8.089844 11.535156c-1.5 2.144531-3.894531 3.292969-6.328124 3.292969zm0 0"/><path d="m80.929688 108.136719c-1.53125 0-3.078126-.453125-4.425782-1.398438-3.492187-2.449219-4.339844-7.265625-1.890625-10.761719l18.609375-26.535156c2.449219-3.492187 7.265625-4.335937 10.757813-1.886718 3.492187 2.449218 4.335937 7.265624 1.886719 10.757812l-18.605469 26.535156c-1.503907 2.144532-3.898438 3.289063-6.332031 3.289063zm0 0"/><path d="m396.050781 206.195312c-1.53125 0-3.078125-.457031-4.429687-1.402343-3.492188-2.449219-4.335938-7.265625-1.886719-10.757813l12.261719-17.488281c2.449218-3.492187 7.265625-4.339844 10.757812-1.890625 3.492188 2.449219 4.339844 7.265625 1.890625 10.757812l-12.265625 17.492188c-1.5 2.140625-3.894531 3.289062-6.328125 3.289062zm0 0"/><path d="m408.84375 235.078125c-1.53125 0-3.078125-.453125-4.429688-1.398437-3.492187-2.449219-4.335937-7.269532-1.886718-10.761719l29.210937-41.65625c2.449219-3.496094 7.265625-4.339844 10.757813-1.890625 3.492187 2.449218 4.339844 7.265625 1.890625 10.757812l-29.214844 41.660156c-1.5 2.144532-3.898437 3.289063-6.328125 3.289063zm0 0"/></g></svg>