<svg height="504pt" viewBox="0 -12 504 504" width="504pt" xmlns="http://www.w3.org/2000/svg"><path d="m448.015625 268c0 2.199219-1.800781 4-4 4h-32.015625c-2.199219 0-4-1.800781-4-4v-8c0-2.199219 1.800781-4 4-4h32.015625c2.199219 0 4 1.800781 4 4zm0 0" fill="#e6e9ed"/><path d="m448 332c0 2.199219-1.800781 4-4 4h-8.046875c-2.199219 0-4-1.800781-4-4v-24.007812c0-2.199219 1.800781-4 4-4h8.046875c2.199219 0 4 1.800781 4 4zm0 0" fill="#e6e9ed"/><path d="m376 376-48-48v-328l48 48zm0 0" fill="#434a54"/><path d="m456 88h-104c-4.425781 0-8 3.574219-8 8s3.574219 8 8 8c-4.425781 0-8 3.574219-8 8s3.574219 8 8 8c-4.425781 0-8 3.574219-8 8s3.574219 8 8 8c-4.433594 0-8.015625 3.585938-8.015625 8.015625 0 4.417969 3.558594 7.984375 7.976563 8.007813-4.417969.023437-7.976563 3.59375-7.976563 8.007812 0 4.433594 3.582031 8.015625 8.015625 8.015625.03125 0 .046875-.015625.078125-.015625h63.859375v87.96875h16l.015625 56h16l.015625 79.9375c0 4.421875 3.574219 8 8 8 4.421875 0 8-3.578125 8-8l.015625-128.128906c0 4.421875 3.574219 8 8 8 4.421875 0 8-3.578125 8-8l.015625 192.191406c0 4.425781 3.574219 8 8 8s8-3.574219 8-8v-328c0-22.054688-17.945312-40-40-40zm0 0" fill="#656d78"/><path d="m471.984375 271.816406c-4.425781 0-8-3.578125-8-8v-135.816406c0-4.425781 3.574219-8 8-8 4.421875 0 8 3.574219 8 8v135.816406c0 4.414063-3.578125 8-8 8zm0 0" fill="#545c66"/><path d="m455.96875 399.9375c-4.425781 0-8-3.578125-8-8v-263.9375c0-4.425781 3.574219-8 8-8 4.421875 0 8 3.574219 8 8v263.9375c0 4.421875-3.578125 8-8 8zm0 0" fill="#656d78"/><path d="m431.953125 136.015625h16v175.984375h-16zm0 0" fill="#545c66"/><path d="m415.9375 152.03125h16v103.96875h-16zm0 0" fill="#656d78"/><path d="m488 136c-4.425781 0-8-3.574219-8-8 0-13.230469-10.769531-24-24-24-4.425781 0-8-3.574219-8-8s3.574219-8 8-8c22.054688 0 40 17.945312 40 40 0 4.425781-3.574219 8-8 8zm0 0" fill="#656d78"/><path d="m471.984375 136c-4.425781 0-8-3.574219-8-8 0-4.414062-3.585937-8-8-8-4.425781 0-8-3.574219-8-8s3.574219-8 8-8c13.230469 0 24 10.769531 24 24 0 4.425781-3.578125 8-8 8zm0 0" fill="#545c66"/><path d="m456 104h-104c-4.425781 0-8-3.574219-8-8s3.574219-8 8-8h104c4.425781 0 8 3.574219 8 8s-3.574219 8-8 8zm0 0" fill="#656d78"/><path d="m456 136h-104c-4.425781 0-8-3.574219-8-8s3.574219-8 8-8h104c4.425781 0 8 3.574219 8 8s-3.574219 8-8 8zm0 0" fill="#656d78"/><path d="m352 136.015625h87.953125v16h-87.953125zm0 0" fill="#545c66"/><path d="m352 152.03125h71.9375v16h-71.9375zm0 0" fill="#656d78"/><path d="m455.984375 120h-103.984375c-4.425781 0-8-3.574219-8-8s3.574219-8 8-8h103.984375c4.421875 0 8 3.574219 8 8s-3.578125 8-8 8zm0 0" fill="#545c66"/><path d="m0 0h328v328h-328zm0 0" fill="#656d78"/><path d="m288 164c0 68.484375-55.515625 124-124 124s-124-55.515625-124-124 55.515625-124 124-124 124 55.515625 124 124zm0 0" fill="#545c66"/><path d="m0 328 48 48h328l-48-48zm0 0" fill="#545c66"/><path d="m360 296-16-16v-24l16 16zm0 0" fill="#aab2bd"/><path d="m360 320-16-16v-24l16 16zm0 0" fill="#656d78"/><path d="m480 268c0 2.199219-1.800781 4-4 4h-8c-2.199219 0-4-1.800781-4-4v-16c0-2.199219 1.800781-4 4-4h8c2.199219 0 4 1.800781 4 4zm0 0" fill="#e6e9ed"/><g fill="#434a54"><path d="m64.238281 348c-2.207031 0-4.039062-1.792969-4.039062-4s1.753906-4 3.953125-4h.085937c2.203125 0 4 1.792969 4 4s-1.789062 4-4 4zm0 0"/><path d="m80.238281 364c-2.207031 0-4.039062-1.792969-4.039062-4s1.753906-4 3.953125-4h.085937c2.203125 0 4 1.792969 4 4s-1.789062 4-4 4zm0 0"/><path d="m112.238281 364c-2.207031 0-4.039062-1.792969-4.039062-4s1.753906-4 3.953125-4h.085937c2.203125 0 4 1.792969 4 4s-1.789062 4-4 4zm0 0"/><path d="m96.238281 348c-2.207031 0-4.039062-1.792969-4.039062-4s1.753906-4 3.953125-4h.085937c2.203125 0 4 1.792969 4 4s-1.789062 4-4 4zm0 0"/><path d="m128.238281 348c-2.207031 0-4.039062-1.792969-4.039062-4s1.753906-4 3.953125-4h.085937c2.203125 0 4 1.792969 4 4s-1.789062 4-4 4zm0 0"/><path d="m144.238281 364c-2.207031 0-4.039062-1.792969-4.039062-4s1.753906-4 3.953125-4h.085937c2.203125 0 4 1.792969 4 4s-1.789062 4-4 4zm0 0"/><path d="m176.238281 364c-2.207031 0-4.039062-1.792969-4.039062-4s1.753906-4 3.953125-4h.085937c2.203125 0 4 1.792969 4 4s-1.789062 4-4 4zm0 0"/><path d="m160.238281 348c-2.207031 0-4.039062-1.792969-4.039062-4s1.753906-4 3.953125-4h.085937c2.203125 0 4 1.792969 4 4s-1.789062 4-4 4zm0 0"/><path d="m192.238281 348c-2.207031 0-4.039062-1.792969-4.039062-4s1.753906-4 3.953125-4h.085937c2.203125 0 4 1.792969 4 4s-1.789062 4-4 4zm0 0"/><path d="m208.238281 364c-2.207031 0-4.039062-1.792969-4.039062-4s1.753906-4 3.953125-4h.085937c2.203125 0 4 1.792969 4 4s-1.789062 4-4 4zm0 0"/><path d="m240.238281 364c-2.207031 0-4.039062-1.792969-4.039062-4s1.753906-4 3.953125-4h.085937c2.203125 0 4 1.792969 4 4s-1.789062 4-4 4zm0 0"/><path d="m224.238281 348c-2.207031 0-4.039062-1.792969-4.039062-4s1.753906-4 3.953125-4h.085937c2.203125 0 4 1.792969 4 4s-1.789062 4-4 4zm0 0"/><path d="m256.238281 348c-2.207031 0-4.039062-1.792969-4.039062-4s1.753906-4 3.953125-4h.085937c2.203125 0 4 1.792969 4 4s-1.789062 4-4 4zm0 0"/><path d="m272.238281 364c-2.207031 0-4.039062-1.792969-4.039062-4s1.753906-4 3.953125-4h.085937c2.203125 0 4 1.792969 4 4s-1.789062 4-4 4zm0 0"/><path d="m304.238281 364c-2.207031 0-4.039062-1.792969-4.039062-4s1.753906-4 3.953125-4h.085937c2.203125 0 4 1.792969 4 4s-1.789062 4-4 4zm0 0"/><path d="m288.238281 348c-2.207031 0-4.039062-1.792969-4.039062-4s1.753906-4 3.953125-4h.085937c2.203125 0 4 1.792969 4 4s-1.789062 4-4 4zm0 0"/></g><path d="m143.992188 147.992188c-1.023438 0-2.046876-.390626-2.832032-1.167969l-90.328125-90.328125c-1.558593-1.558594-1.558593-4.097656 0-5.65625 1.558594-1.558594 4.097657-1.558594 5.65625 0l90.328125 90.328125c1.558594 1.558593 1.558594 4.097656 0 5.65625-.777344.777343-1.800781 1.167969-2.824218 1.167969zm0 0" fill="#aab2bd"/><path d="m184.007812 147.992188c-1.023437 0-2.046874-.390626-2.832031-1.167969-1.558593-1.558594-1.558593-4.097657 0-5.65625l90.328125-90.335938c1.558594-1.558593 4.097656-1.558593 5.65625 0 1.558594 1.558594 1.558594 4.097657 0 5.65625l-90.328125 90.335938c-.777343.777343-1.800781 1.167969-2.824219 1.167969zm0 0" fill="#aab2bd"/><path d="m274.335938 278.335938c-1.023438 0-2.046876-.390626-2.832032-1.167969l-90.328125-90.335938c-1.558593-1.558593-1.558593-4.097656 0-5.65625 1.558594-1.558593 4.097657-1.558593 5.65625 0l90.328125 90.328125c1.558594 1.558594 1.558594 4.097656 0 5.65625-.777344.785156-1.800781 1.175782-2.824218 1.175782zm0 0" fill="#aab2bd"/><path d="m53.664062 278.335938c-1.023437 0-2.046874-.390626-2.832031-1.167969-1.558593-1.558594-1.558593-4.097657 0-5.65625l90.328125-90.328125c1.558594-1.558594 4.097656-1.558594 5.65625 0s1.558594 4.097656 0 5.65625l-90.320312 90.328125c-.785156.777343-1.808594 1.167969-2.832032 1.167969zm0 0" fill="#aab2bd"/><path d="m283.984375 56.015625c0 6.628906-5.371094 12-12 12s-12-5.371094-12-12 5.371094-12 12-12 12 5.371094 12 12zm0 0" fill="#ccd1d9"/><path d="m67.777344 56.015625c0 6.628906-5.375 12-12 12-6.628906 0-12-5.371094-12-12s5.371094-12 12-12c6.625 0 12 5.371094 12 12zm0 0" fill="#ccd1d9"/><path d="m68.015625 271.984375c0 6.628906-5.371094 12-12 12s-12-5.371094-12-12 5.371094-12 12-12 12 5.371094 12 12zm0 0" fill="#ccd1d9"/><path d="m283.984375 271.984375c0 6.628906-5.371094 12-12 12s-12-5.371094-12-12 5.371094-12 12-12 12 5.371094 12 12zm0 0" fill="#ccd1d9"/><path d="m164 292c-70.574219 0-128-57.425781-128-128s57.425781-128 128-128 128 57.425781 128 128-57.425781 128-128 128zm0-248c-66.167969 0-120 53.832031-120 120s53.832031 120 120 120 120-53.832031 120-120-53.832031-120-120-120zm0 0" fill="#ccd1d9"/><path d="m164 276c-61.761719 0-112-50.238281-112-112s50.238281-112 112-112 112 50.238281 112 112-50.238281 112-112 112zm0-216c-57.34375 0-104 46.65625-104 104s46.65625 104 104 104 104-46.65625 104-104-46.65625-104-104-104zm0 0" fill="#ccd1d9"/><path d="m164 260c-52.9375 0-96-43.0625-96-96s43.0625-96 96-96 96 43.0625 96 96-43.0625 96-96 96zm0-184c-48.519531 0-88 39.480469-88 88s39.480469 88 88 88 88-39.480469 88-88-39.480469-88-88-88zm0 0" fill="#ccd1d9"/><path d="m164 244c-44.113281 0-80-35.886719-80-80s35.886719-80 80-80 80 35.886719 80 80-35.886719 80-80 80zm0-152c-39.703125 0-72 32.296875-72 72s32.296875 72 72 72 72-32.296875 72-72-32.296875-72-72-72zm0 0" fill="#ccd1d9"/><path d="m164 228c-35.289062 0-64-28.710938-64-64s28.710938-64 64-64 64 28.710938 64 64-28.710938 64-64 64zm0-120c-30.871094 0-56 25.128906-56 56s25.128906 56 56 56 56-25.128906 56-56-25.128906-56-56-56zm0 0" fill="#ccd1d9"/><path d="m164 212c-26.472656 0-48-21.527344-48-48s21.527344-48 48-48 48 21.527344 48 48-21.527344 48-48 48zm0-88c-22.054688 0-40 17.945312-40 40s17.945312 40 40 40 40-17.945312 40-40-17.945312-40-40-40zm0 0" fill="#ccd1d9"/><path d="m164 196c-17.648438 0-32-14.351562-32-32s14.351562-32 32-32 32 14.351562 32 32-14.351562 32-32 32zm0-56c-13.230469 0-24 10.769531-24 24s10.769531 24 24 24 24-10.769531 24-24-10.769531-24-24-24zm0 0" fill="#ccd1d9"/><path d="m360.015625 144.015625c0 4.425781-3.589844 8.015625-8.015625 8.015625s-8.015625-3.589844-8.015625-8.015625 3.589844-8.015625 8.015625-8.015625 8.015625 3.589844 8.015625 8.015625zm0 0" fill="#545c66"/><path d="m360.015625 160.03125c0 4.429688-3.589844 8.015625-8.015625 8.015625s-8.015625-3.585937-8.015625-8.015625c0-4.425781 3.589844-8.015625 8.015625-8.015625s8.015625 3.589844 8.015625 8.015625zm0 0" fill="#656d78"/><path d="m463.96875 248h16.03125v4h-16.03125zm0 0" fill="#e6e9ed"/><path d="m488.007812 404c0 2.199219-1.800781 4-4 4h-64.007812c-2.199219 0-4-1.800781-4-4v-24c0-2.199219 1.800781-4 4-4h64.007812c2.199219 0 4 1.800781 4 4zm0 0" fill="#e6e9ed"/><path d="m472 396h-40c-2.207031 0-4-1.792969-4-4s1.792969-4 4-4h40c2.207031 0 4 1.792969 4 4s-1.792969 4-4 4zm0 0" fill="#ccd1d9"/><path d="m488 464c-4.425781 0-8-3.574219-8-8v-328c0-4.425781 3.574219-8 8-8s8 3.574219 8 8v328c0 4.425781-3.574219 8-8 8zm0 0" fill="#656d78"/><path d="m504 476c0 2.199219-1.800781 4-4 4h-24c-2.199219 0-4-1.800781-4-4v-16c0-2.199219 1.800781-4 4-4h24c2.199219 0 4 1.800781 4 4zm0 0" fill="#e6e9ed"/><path d="m488 475.984375c-2.207031 0-4 1.792969-4 4v.015625h8v-.015625c0-2.207031-1.792969-4-4-4zm0 0" fill="#ccd1d9"/></svg>